# Blender 3.4.1
# www.blender.org
mtllib flag_field.mtl
g Circle_Mesh
v 0.000000 0.000000 -1.528664
v -0.298228 0.000000 -1.499291
v -0.584994 0.000000 -1.412301
v -0.849280 0.000000 -1.271037
v -1.080928 0.000000 -1.080928
v -1.271037 0.000000 -0.849280
v -1.412301 0.000000 -0.584994
v -1.499291 0.000000 -0.298228
v -1.528664 0.000000 0.000000
v -1.499291 0.000000 0.298228
v -1.412301 0.000000 0.584994
v -1.271037 0.000000 0.849280
v -1.080928 0.000000 1.080928
v -0.849280 0.000000 1.271037
v -0.584994 0.000000 1.412301
v -0.298228 0.000000 1.499291
v 0.000000 0.000000 1.528664
v 0.298228 0.000000 1.499291
v 0.584994 0.000000 1.412301
v 0.849280 0.000000 1.271037
v 1.080928 0.000000 1.080928
v 1.271037 0.000000 0.849280
v 1.412301 0.000000 0.584994
v 1.499291 0.000000 0.298228
v 1.528664 0.000000 0.000000
v 1.499291 0.000000 -0.298228
v 1.412301 0.000000 -0.584994
v 1.271037 0.000000 -0.849280
v 1.080928 0.000000 -1.080928
v 0.849280 0.000000 -1.271037
v 0.584994 0.000000 -1.412301
v 0.298228 0.000000 -1.499291
v -0.000000 0.210485 -1.315542
v -0.000000 0.242390 -1.237724
v -0.000000 0.233045 -1.279368
v -0.241468 0.242390 -1.213942
v -0.256649 0.210485 -1.290264
v -0.249592 0.233045 -1.254786
v -0.473656 0.242390 -1.143508
v -0.503436 0.210485 -1.215402
v -0.489593 0.233045 -1.181982
v -0.687643 0.242390 -1.029130
v -0.730876 0.210485 -1.093833
v -0.710779 0.233045 -1.063756
v -0.875203 0.242390 -0.875203
v -0.930228 0.210485 -0.930228
v -0.904650 0.233045 -0.904650
v -1.029130 0.242390 -0.687643
v -1.093833 0.210485 -0.730876
v -1.063756 0.233045 -0.710779
v -1.143508 0.242390 -0.473657
v -1.215402 0.210485 -0.503436
v -1.181982 0.233045 -0.489593
v -1.213942 0.242390 -0.241468
v -1.290264 0.210485 -0.256649
v -1.254786 0.233045 -0.249592
v -1.237724 0.242390 -0.000000
v -1.315542 0.210485 -0.000000
v -1.279368 0.233045 -0.000000
v -1.213942 0.242390 0.241468
v -1.290264 0.210485 0.256649
v -1.254786 0.233045 0.249592
v -1.143508 0.242390 0.473656
v -1.215402 0.210485 0.503436
v -1.181982 0.233045 0.489593
v -1.029130 0.242390 0.687643
v -1.093833 0.210485 0.730876
v -1.063756 0.233045 0.710779
v -0.875203 0.242390 0.875203
v -0.930228 0.210485 0.930228
v -0.904650 0.233045 0.904650
v -0.687643 0.242390 1.029130
v -0.730876 0.210485 1.093833
v -0.710779 0.233045 1.063756
v -0.473656 0.242390 1.143508
v -0.503436 0.210485 1.215402
v -0.489593 0.233045 1.181982
v -0.241468 0.242390 1.213942
v -0.256649 0.210485 1.290264
v -0.249592 0.233045 1.254786
v -0.000000 0.242390 1.237724
v -0.000000 0.210485 1.315542
v -0.000000 0.233045 1.279368
v 0.241468 0.242390 1.213942
v 0.256649 0.210485 1.290264
v 0.249592 0.233045 1.254786
v 0.473656 0.242390 1.143508
v 0.503436 0.210485 1.215402
v 0.489593 0.233045 1.181982
v 0.687643 0.242390 1.029130
v 0.730876 0.210485 1.093833
v 0.710779 0.233045 1.063756
v 0.875203 0.242390 0.875203
v 0.930228 0.210485 0.930228
v 0.904650 0.233045 0.904650
v 1.029130 0.242390 0.687643
v 1.093833 0.210485 0.730876
v 1.063756 0.233045 0.710779
v 1.143508 0.242390 0.473656
v 1.215402 0.210485 0.503436
v 1.181982 0.233045 0.489593
v 1.213942 0.242390 0.241468
v 1.290264 0.210485 0.256649
v 1.254786 0.233045 0.249592
v 1.237724 0.242390 -0.000000
v 1.315542 0.210485 -0.000000
v 1.279368 0.233045 -0.000000
v 1.213942 0.242390 -0.241468
v 1.290264 0.210485 -0.256649
v 1.254786 0.233045 -0.249592
v 1.143508 0.242390 -0.473657
v 1.215402 0.210485 -0.503436
v 1.181982 0.233045 -0.489593
v 1.029130 0.242390 -0.687643
v 1.093833 0.210485 -0.730876
v 1.063756 0.233045 -0.710779
v 0.875203 0.242390 -0.875203
v 0.930228 0.210485 -0.930228
v 0.904650 0.233045 -0.904650
v 0.687643 0.242390 -1.029130
v 0.730876 0.210485 -1.093833
v 0.710779 0.233045 -1.063756
v 0.473656 0.242390 -1.143508
v 0.503436 0.210485 -1.215402
v 0.489593 0.233045 -1.181982
v 0.241468 0.242390 -1.213942
v 0.256649 0.210485 -1.290264
v 0.249592 0.233045 -1.254786
vn -0.7010 -0.7098 -0.0690
vn 0.6212 -0.7098 -0.3321
vn -0.7010 -0.7098 0.0690
vn 0.5445 -0.7098 -0.4469
vn -0.6741 -0.7098 0.2045
vn 0.4469 -0.7098 -0.5445
vn -0.6212 -0.7098 0.3321
vn 0.3321 -0.7098 -0.6212
vn -0.5445 -0.7098 0.4469
vn 0.2045 -0.7098 -0.6741
vn 0.2045 -0.7098 0.6741
vn -0.4469 -0.7098 0.5445
vn 0.0690 -0.7098 -0.7010
vn 0.3321 -0.7098 0.6212
vn -0.3321 -0.7098 0.6212
vn -0.0690 -0.7098 -0.7010
vn 0.4469 -0.7098 0.5445
vn -0.2045 -0.7098 0.6741
vn -0.2045 -0.7098 -0.6741
vn 0.5445 -0.7098 0.4469
vn -0.3321 -0.7098 -0.6212
vn 0.6212 -0.7098 0.3321
vn 0.0690 -0.7098 0.7010
vn -0.4469 -0.7098 -0.5445
vn 0.6741 -0.7098 0.2045
vn -0.5445 -0.7098 -0.4469
vn 0.7010 -0.7098 0.0690
vn -0.6212 -0.7098 -0.3321
vn 0.7010 -0.7098 -0.0690
vn -0.6741 -0.7098 -0.2045
vn 0.6741 -0.7098 -0.2045
vn -0.0690 -0.7098 0.7010
vn -0.0000 1.0000 -0.0000
vn 0.0520 -0.8474 0.5285
vn 0.0216 -0.9755 0.2189
vn 0.1541 -0.8474 0.5082
vn 0.0639 -0.9755 0.2105
vn 0.2503 -0.8474 0.4683
vn 0.1037 -0.9755 0.1940
vn 0.3369 -0.8474 0.4105
vn 0.1395 -0.9755 0.1700
vn 0.4105 -0.8474 0.3369
vn 0.1700 -0.9755 0.1395
vn 0.4683 -0.8474 0.2503
vn 0.1940 -0.9755 0.1037
vn 0.5082 -0.8474 0.1541
vn 0.2105 -0.9755 0.0639
vn 0.5285 -0.8474 0.0520
vn 0.2189 -0.9755 0.0216
vn 0.5285 -0.8474 -0.0521
vn 0.2189 -0.9755 -0.0216
vn 0.5082 -0.8474 -0.1541
vn 0.2105 -0.9755 -0.0639
vn 0.4683 -0.8474 -0.2503
vn 0.1940 -0.9755 -0.1037
vn 0.4105 -0.8474 -0.3369
vn 0.1700 -0.9755 -0.1395
vn 0.3369 -0.8474 -0.4105
vn 0.1395 -0.9755 -0.1700
vn 0.2503 -0.8474 -0.4683
vn 0.1037 -0.9755 -0.1940
vn 0.1541 -0.8474 -0.5082
vn 0.0639 -0.9755 -0.2105
vn 0.0521 -0.8474 -0.5285
vn 0.0216 -0.9755 -0.2189
vn -0.0520 -0.8474 -0.5285
vn -0.0216 -0.9755 -0.2189
vn -0.1541 -0.8474 -0.5082
vn -0.0639 -0.9755 -0.2105
vn -0.2503 -0.8474 -0.4683
vn -0.1037 -0.9755 -0.1940
vn -0.3369 -0.8474 -0.4105
vn -0.1395 -0.9755 -0.1700
vn -0.4105 -0.8474 -0.3369
vn -0.1700 -0.9755 -0.1395
vn -0.4683 -0.8474 -0.2503
vn -0.1940 -0.9755 -0.1037
vn -0.5082 -0.8474 -0.1541
vn -0.2105 -0.9755 -0.0639
vn -0.5285 -0.8474 -0.0520
vn -0.2189 -0.9755 -0.0216
vn -0.5285 -0.8474 0.0521
vn -0.2189 -0.9755 0.0216
vn -0.5082 -0.8474 0.1541
vn -0.2105 -0.9755 0.0639
vn -0.4683 -0.8474 0.2503
vn -0.1940 -0.9755 0.1037
vn -0.4105 -0.8474 0.3369
vn -0.1700 -0.9755 0.1395
vn -0.3369 -0.8474 0.4105
vn -0.1395 -0.9755 0.1700
vn -0.2503 -0.8474 0.4683
vn -0.1037 -0.9755 0.1940
vn -0.1541 -0.8474 0.5082
vn -0.0639 -0.9755 0.2105
vn -0.0521 -0.8474 0.5285
vn -0.0216 -0.9755 0.2189
vn -0.0000 -1.0000 -0.0000
vn 0.0521 -0.8474 0.5285
vn 0.5285 -0.8474 0.0521
vn 0.5285 -0.8474 -0.0520
vn 0.0520 -0.8474 -0.5285
vn -0.0521 -0.8474 -0.5285
vn -0.5285 -0.8474 -0.0521
vn -0.5285 -0.8474 0.0520
vn -0.0520 -0.8474 0.5285
vt 0.500125 0.986914
vt 0.405173 0.977562
vt 0.313868 0.949865
vt 0.229722 0.904889
vt 0.155967 0.844360
vt 0.095437 0.770604
vt 0.050461 0.686458
vt 0.022764 0.595153
vt 0.013412 0.500201
vt 0.022764 0.405247
vt 0.050461 0.313943
vt 0.095437 0.229797
vt 0.155967 0.156043
vt 0.229722 0.095514
vt 0.313868 0.050535
vt 0.405173 0.022839
vt 0.500125 0.013487
vt 0.595079 0.022839
vt 0.686383 0.050535
vt 0.770529 0.095514
vt 0.844284 0.156043
vt 0.904813 0.229797
vt 0.949790 0.313943
vt 0.977487 0.405247
vt 0.986840 0.500201
vt 0.977487 0.595153
vt 0.949790 0.686458
vt 0.904813 0.770604
vt 0.844284 0.844360
vt 0.770529 0.904889
vt 0.686383 0.949865
vt 0.595079 0.977562
vt 0.500125 0.919059
vt 0.500125 0.894281
vt 0.500125 0.907541
vt 0.423244 0.886710
vt 0.418410 0.911009
vt 0.420658 0.899713
vt 0.349318 0.864284
vt 0.339836 0.887174
vt 0.344243 0.876534
vt 0.281186 0.827866
vt 0.267421 0.848468
vt 0.273819 0.838891
vt 0.221468 0.778856
vt 0.203948 0.796378
vt 0.212093 0.788232
vt 0.172459 0.719139
vt 0.151858 0.732905
vt 0.161435 0.726507
vt 0.136042 0.651008
vt 0.113152 0.660491
vt 0.123792 0.656082
vt 0.113616 0.577081
vt 0.089317 0.581914
vt 0.100613 0.579668
vt 0.106045 0.500201
vt 0.081268 0.500201
vt 0.092785 0.500201
vt 0.113616 0.423319
vt 0.089317 0.418486
vt 0.100613 0.420732
vt 0.136042 0.349393
vt 0.113152 0.339911
vt 0.123792 0.344318
vt 0.172459 0.281261
vt 0.151858 0.267495
vt 0.161435 0.273895
vt 0.221468 0.221543
vt 0.203948 0.204024
vt 0.212093 0.212168
vt 0.281186 0.172534
vt 0.267421 0.151933
vt 0.273819 0.161509
vt 0.349318 0.136117
vt 0.339836 0.113227
vt 0.344243 0.123867
vt 0.423244 0.113691
vt 0.418410 0.089391
vt 0.420658 0.100687
vt 0.500125 0.106120
vt 0.500125 0.081344
vt 0.500125 0.092860
vt 0.577007 0.113691
vt 0.581840 0.089391
vt 0.579594 0.100687
vt 0.650934 0.136117
vt 0.660415 0.113227
vt 0.656008 0.123867
vt 0.719065 0.172534
vt 0.732830 0.151933
vt 0.726431 0.161509
vt 0.778783 0.221543
vt 0.796302 0.204024
vt 0.788158 0.212168
vt 0.827792 0.281261
vt 0.848392 0.267495
vt 0.838816 0.273895
vt 0.864209 0.349393
vt 0.887099 0.339911
vt 0.876458 0.344318
vt 0.886634 0.423319
vt 0.910935 0.418486
vt 0.899639 0.420732
vt 0.894207 0.500201
vt 0.918983 0.500201
vt 0.907465 0.500201
vt 0.886634 0.577081
vt 0.910935 0.581914
vt 0.899639 0.579668
vt 0.864209 0.651008
vt 0.887099 0.660491
vt 0.876458 0.656082
vt 0.827792 0.719139
vt 0.848392 0.732905
vt 0.838816 0.726507
vt 0.778783 0.778856
vt 0.796302 0.796378
vt 0.788158 0.788232
vt 0.719065 0.827866
vt 0.732830 0.848468
vt 0.726431 0.838891
vt 0.650934 0.864284
vt 0.660415 0.887174
vt 0.656008 0.876534
vt 0.577007 0.886710
vt 0.581840 0.911009
vt 0.579594 0.899713
s 0
g off
g Circle_Material.001
usemtl Material.001
f 24/24/1 106/106/1 25/25/1
f 11/11/2 67/67/2 12/12/2
f 25/25/3 109/109/3 26/26/3
f 12/12/4 70/70/4 13/13/4
f 26/26/5 112/112/5 27/27/5
f 14/14/6 70/70/6 73/73/6
f 27/27/7 115/115/7 28/28/7
f 15/15/8 73/73/8 76/76/8
f 28/28/9 118/118/9 29/29/9
f 15/15/10 79/79/10 16/16/10
f 2/2/11 40/40/11 3/3/11
f 30/30/12 118/118/12 121/121/12
f 16/16/13 82/82/13 17/17/13
f 3/3/14 43/43/14 4/4/14
f 31/31/15 121/121/15 124/124/15
f 17/17/16 85/85/16 18/18/16
f 4/4/17 46/46/17 5/5/17
f 31/31/18 127/127/18 32/32/18
f 18/18/19 88/88/19 19/19/19
f 6/6/20 46/46/20 49/49/20
f 19/19/21 91/91/21 20/20/21
f 6/6/22 52/52/22 7/7/22
f 1/1/23 37/37/23 2/2/23
f 20/20/24 94/94/24 21/21/24
f 7/7/25 55/55/25 8/8/25
f 22/22/26 94/94/26 97/97/26
f 8/8/27 58/58/27 9/9/27
f 22/22/28 100/100/28 23/23/28
f 9/9/29 61/61/29 10/10/29
f 24/24/30 100/100/30 103/103/30
f 10/10/31 64/64/31 11/11/31
f 32/32/32 33/33/32 1/1/32
f 17/17/33 25/25/33 1/1/33
f 37/37/34 35/35/34 38/38/34
f 35/35/35 36/36/35 38/38/35
f 37/37/36 41/41/36 40/40/36
f 38/38/37 39/39/37 41/41/37
f 40/40/38 44/44/38 43/43/38
f 41/41/39 42/42/39 44/44/39
f 43/43/40 47/47/40 46/46/40
f 44/44/41 45/45/41 47/47/41
f 49/49/42 47/47/42 50/50/42
f 50/50/43 45/45/43 48/48/43
f 52/52/44 50/50/44 53/53/44
f 53/53/45 48/48/45 51/51/45
f 55/55/46 53/53/46 56/56/46
f 56/56/47 51/51/47 54/54/47
f 55/55/48 59/59/48 58/58/48
f 59/59/49 54/54/49 57/57/49
f 61/61/50 59/59/50 62/62/50
f 59/59/51 60/60/51 62/62/51
f 61/61/52 65/65/52 64/64/52
f 62/62/53 63/63/53 65/65/53
f 64/64/54 68/68/54 67/67/54
f 65/65/55 66/66/55 68/68/55
f 67/67/56 71/71/56 70/70/56
f 68/68/57 69/69/57 71/71/57
f 73/73/58 71/71/58 74/74/58
f 74/74/59 69/69/59 72/72/59
f 76/76/60 74/74/60 77/77/60
f 77/77/61 72/72/61 75/75/61
f 79/79/62 77/77/62 80/80/62
f 80/80/63 75/75/63 78/78/63
f 79/79/64 83/83/64 82/82/64
f 83/83/65 78/78/65 81/81/65
f 85/85/66 83/83/66 86/86/66
f 83/83/67 84/84/67 86/86/67
f 85/85/68 89/89/68 88/88/68
f 86/86/69 87/87/69 89/89/69
f 88/88/70 92/92/70 91/91/70
f 89/89/71 90/90/71 92/92/71
f 91/91/72 95/95/72 94/94/72
f 92/92/73 93/93/73 95/95/73
f 97/97/74 95/95/74 98/98/74
f 98/98/75 93/93/75 96/96/75
f 100/100/76 98/98/76 101/101/76
f 101/101/77 96/96/77 99/99/77
f 103/103/78 101/101/78 104/104/78
f 104/104/79 99/99/79 102/102/79
f 103/103/80 107/107/80 106/106/80
f 107/107/81 102/102/81 105/105/81
f 109/109/82 107/107/82 110/110/82
f 107/107/83 108/108/83 110/110/83
f 109/109/84 113/113/84 112/112/84
f 110/110/85 111/111/85 113/113/85
f 112/112/86 116/116/86 115/115/86
f 113/113/87 114/114/87 116/116/87
f 115/115/88 119/119/88 118/118/88
f 116/116/89 117/117/89 119/119/89
f 121/121/90 119/119/90 122/122/90
f 122/122/91 117/117/91 120/120/91
f 124/124/92 122/122/92 125/125/92
f 125/125/93 120/120/93 123/123/93
f 127/127/94 125/125/94 128/128/94
f 128/128/95 123/123/95 126/126/95
f 127/127/96 35/35/96 33/33/96
f 35/35/97 126/126/97 34/34/97
f 87/87/98 63/63/98 39/39/98
f 24/24/1 103/103/1 106/106/1
f 11/11/2 64/64/2 67/67/2
f 25/25/3 106/106/3 109/109/3
f 12/12/4 67/67/4 70/70/4
f 26/26/5 109/109/5 112/112/5
f 14/14/6 13/13/6 70/70/6
f 27/27/7 112/112/7 115/115/7
f 15/15/8 14/14/8 73/73/8
f 28/28/9 115/115/9 118/118/9
f 15/15/10 76/76/10 79/79/10
f 2/2/11 37/37/11 40/40/11
f 30/30/12 29/29/12 118/118/12
f 16/16/13 79/79/13 82/82/13
f 3/3/14 40/40/14 43/43/14
f 31/31/15 30/30/15 121/121/15
f 17/17/16 82/82/16 85/85/16
f 4/4/17 43/43/17 46/46/17
f 31/31/18 124/124/18 127/127/18
f 18/18/19 85/85/19 88/88/19
f 6/6/20 5/5/20 46/46/20
f 19/19/21 88/88/21 91/91/21
f 6/6/22 49/49/22 52/52/22
f 1/1/23 33/33/23 37/37/23
f 20/20/24 91/91/24 94/94/24
f 7/7/25 52/52/25 55/55/25
f 22/22/26 21/21/26 94/94/26
f 8/8/27 55/55/27 58/58/27
f 22/22/28 97/97/28 100/100/28
f 9/9/29 58/58/29 61/61/29
f 24/24/30 23/23/30 100/100/30
f 10/10/31 61/61/31 64/64/31
f 32/32/32 127/127/32 33/33/32
f 1/1/33 2/2/33 3/3/33
f 3/3/33 4/4/33 5/5/33
f 5/5/33 6/6/33 7/7/33
f 7/7/33 8/8/33 9/9/33
f 9/9/33 10/10/33 11/11/33
f 11/11/33 12/12/33 13/13/33
f 13/13/33 14/14/33 15/15/33
f 15/15/33 16/16/33 17/17/33
f 17/17/33 18/18/33 19/19/33
f 19/19/33 20/20/33 21/21/33
f 21/21/33 22/22/33 23/23/33
f 23/23/33 24/24/33 25/25/33
f 25/25/33 26/26/33 27/27/33
f 27/27/33 28/28/33 29/29/33
f 29/29/33 30/30/33 31/31/33
f 31/31/33 32/32/33 1/1/33
f 1/1/33 3/3/33 5/5/33
f 5/5/33 7/7/33 9/9/33
f 9/9/33 11/11/33 13/13/33
f 13/13/33 15/15/33 17/17/33
f 17/17/33 19/19/33 21/21/33
f 21/21/33 23/23/33 25/25/33
f 25/25/33 27/27/33 29/29/33
f 29/29/33 31/31/33 1/1/33
f 1/1/33 5/5/33 9/9/33
f 9/9/33 13/13/33 17/17/33
f 17/17/33 21/21/33 25/25/33
f 25/25/33 29/29/33 1/1/33
f 1/1/33 9/9/33 17/17/33
f 37/37/99 33/33/99 35/35/99
f 35/35/35 34/34/35 36/36/35
f 37/37/36 38/38/36 41/41/36
f 38/38/37 36/36/37 39/39/37
f 40/40/38 41/41/38 44/44/38
f 41/41/39 39/39/39 42/42/39
f 43/43/40 44/44/40 47/47/40
f 44/44/41 42/42/41 45/45/41
f 49/49/42 46/46/42 47/47/42
f 50/50/43 47/47/43 45/45/43
f 52/52/44 49/49/44 50/50/44
f 53/53/45 50/50/45 48/48/45
f 55/55/46 52/52/46 53/53/46
f 56/56/47 53/53/47 51/51/47
f 55/55/100 56/56/100 59/59/100
f 59/59/49 56/56/49 54/54/49
f 61/61/101 58/58/101 59/59/101
f 59/59/51 57/57/51 60/60/51
f 61/61/52 62/62/52 65/65/52
f 62/62/53 60/60/53 63/63/53
f 64/64/54 65/65/54 68/68/54
f 65/65/55 63/63/55 66/66/55
f 67/67/56 68/68/56 71/71/56
f 68/68/57 66/66/57 69/69/57
f 73/73/58 70/70/58 71/71/58
f 74/74/59 71/71/59 69/69/59
f 76/76/60 73/73/60 74/74/60
f 77/77/61 74/74/61 72/72/61
f 79/79/62 76/76/62 77/77/62
f 80/80/63 77/77/63 75/75/63
f 79/79/102 80/80/102 83/83/102
f 83/83/65 80/80/65 78/78/65
f 85/85/103 82/82/103 83/83/103
f 83/83/67 81/81/67 84/84/67
f 85/85/68 86/86/68 89/89/68
f 86/86/69 84/84/69 87/87/69
f 88/88/70 89/89/70 92/92/70
f 89/89/71 87/87/71 90/90/71
f 91/91/72 92/92/72 95/95/72
f 92/92/73 90/90/73 93/93/73
f 97/97/74 94/94/74 95/95/74
f 98/98/75 95/95/75 93/93/75
f 100/100/76 97/97/76 98/98/76
f 101/101/77 98/98/77 96/96/77
f 103/103/78 100/100/78 101/101/78
f 104/104/79 101/101/79 99/99/79
f 103/103/104 104/104/104 107/107/104
f 107/107/81 104/104/81 102/102/81
f 109/109/105 106/106/105 107/107/105
f 107/107/83 105/105/83 108/108/83
f 109/109/84 110/110/84 113/113/84
f 110/110/85 108/108/85 111/111/85
f 112/112/86 113/113/86 116/116/86
f 113/113/87 111/111/87 114/114/87
f 115/115/88 116/116/88 119/119/88
f 116/116/89 114/114/89 117/117/89
f 121/121/90 118/118/90 119/119/90
f 122/122/91 119/119/91 117/117/91
f 124/124/92 121/121/92 122/122/92
f 125/125/93 122/122/93 120/120/93
f 127/127/94 124/124/94 125/125/94
f 128/128/95 125/125/95 123/123/95
f 127/127/106 128/128/106 35/35/106
f 35/35/97 128/128/97 126/126/97
f 39/39/98 36/36/98 34/34/98
f 34/34/98 126/126/98 123/123/98
f 123/123/98 120/120/98 117/117/98
f 117/117/98 114/114/98 111/111/98
f 111/111/98 108/108/98 105/105/98
f 105/105/98 102/102/98 99/99/98
f 99/99/98 96/96/98 93/93/98
f 93/93/98 90/90/98 87/87/98
f 87/87/98 84/84/98 81/81/98
f 81/81/98 78/78/98 75/75/98
f 75/75/98 72/72/98 69/69/98
f 69/69/98 66/66/98 63/63/98
f 63/63/98 60/60/98 57/57/98
f 57/57/98 54/54/98 51/51/98
f 51/51/98 48/48/98 45/45/98
f 45/45/98 42/42/98 39/39/98
f 39/39/98 34/34/98 123/123/98
f 123/123/98 117/117/98 111/111/98
f 111/111/98 105/105/98 99/99/98
f 99/99/98 93/93/98 87/87/98
f 87/87/98 81/81/98 75/75/98
f 75/75/98 69/69/98 63/63/98
f 63/63/98 57/57/98 51/51/98
f 51/51/98 45/45/98 39/39/98
f 39/39/98 123/123/98 111/111/98
f 111/111/98 99/99/98 87/87/98
f 87/87/98 75/75/98 63/63/98
f 63/63/98 51/51/98 39/39/98
f 39/39/98 111/111/98 87/87/98
