# Blender v3.2.0 OBJ File: 'island.blend'
# www.blender.org
mtllib island.mtl
o island.body_柱体.003
v 1.054143 3.400088 -3.934119
v 4.010164 3.380517 -2.426613
v 4.454054 3.372320 0.843893
v 0.950269 3.269330 4.615514
v -2.109837 3.273234 4.155067
v -4.934327 3.397358 0.908242
v -3.670026 3.398996 -3.010259
v 0.743954 0.984029 -2.302092
v 2.161993 1.117261 -1.217956
v 1.683356 1.113192 1.827995
v -1.770029 1.056901 1.686446
v -1.725819 1.035379 -1.668042
v 0.000000 2.004165 -3.538372
v 2.492745 1.861558 -2.492744
v 3.338734 1.928968 -0.204377
v 2.616033 1.900114 2.446673
v 0.116554 1.987644 3.403759
v -2.546076 1.903394 2.462265
v -3.338734 1.928968 0.204377
v -2.603311 1.930285 -2.479309
v 0.507959 -1.398698 -0.177924
v 0.522134 -0.000283 1.631619
v -1.177301 0.029505 1.279023
v -1.683919 0.016149 -0.390273
v -0.472012 -0.080119 -1.584059
vt 1.000000 0.875000
vt 0.958333 1.000000
vt 0.875000 0.875000
vt 0.700006 1.000000
vt 0.630449 0.875000
vt 0.750000 0.855508
vt 0.541667 1.000000
vt 0.500000 0.863861
vt 0.283339 1.000000
vt 0.250000 0.855508
vt 0.372304 0.875000
vt 0.127625 0.750000
vt 0.045886 0.625000
vt 0.213739 0.625000
vt 0.618429 0.750000
vt 0.549202 0.625000
vt 0.516720 0.509656
vt 0.371203 0.750000
vt 0.833333 0.742090
vt 0.948371 0.739981
vt 1.000000 0.625000
vt 0.833333 1.000000
vt 0.381606 0.625000
vt 0.416667 1.000000
vt 0.128989 0.875000
vt 0.116671 1.000000
vt 0.000000 0.875000
vt 0.000000 1.000000
vt 0.000000 0.750000
vn 0.3177 -0.4729 -0.8219
vn 0.7078 -0.6817 0.1855
vn 0.2171 -0.7415 0.6349
vn -0.6118 -0.7637 0.2061
vn -0.5532 -0.6600 -0.5083
vn 0.5498 -0.6630 0.5081
vn -0.6182 -0.7578 0.2085
vn 0.2144 -0.7479 0.6282
vn 0.5781 -0.8023 0.1489
vn 0.6792 -0.6968 -0.2306
vn 0.3782 -0.8388 -0.3916
vn 0.1517 -0.6661 -0.7303
vn 0.5224 -0.5957 -0.6101
vn 0.7675 -0.6176 -0.1715
vn -0.1395 -0.7830 0.6062
vn -0.5459 -0.8199 0.1722
vn -0.4662 -0.7839 -0.4101
vn 0.4179 -0.3816 -0.8244
vn -0.1625 -0.6923 0.7031
vn 0.7235 -0.1768 0.6673
vn -0.7290 -0.6478 -0.2211
vn -0.6694 -0.4836 0.5639
vn -0.2464 -0.2993 -0.9218
vn -0.7092 -0.6417 0.2922
vn -0.2406 -0.3389 -0.9096
vn -0.7518 -0.5273 -0.3960
vn -0.2689 -0.6211 0.7361
vn -0.1918 -0.7880 -0.5851
vn 0.4130 -0.5577 0.7201
vn 0.7175 -0.6077 0.3405
vn 0.7148 -0.6107 -0.3407
vn -0.6217 -0.7644 -0.1707
vn -0.1974 -0.7546 0.6258
vn 0.2566 -0.6640 -0.7023
usemtl rock
s off
f 13/1/1 1/2/1 14/3/1
f 3/4/2 16/5/2 15/6/2
f 4/7/3 17/8/3 16/5/3
f 6/9/4 19/10/4 18/11/4
f 12/12/5 25/13/5 24/14/5
f 10/15/6 22/16/6 21/17/6
f 18/11/7 19/10/7 11/18/7
f 16/5/8 17/8/8 10/15/8
f 15/6/9 16/5/9 10/15/9
f 14/3/10 15/6/10 9/19/10
f 14/3/11 9/19/11 8/20/11
f 21/17/12 25/21/12 8/20/12
f 21/17/13 8/20/13 9/19/13
f 15/6/14 14/3/14 2/22/14 3/4/14
f 21/17/15 22/16/15 23/23/15
f 21/17/16 23/23/16 24/14/16
f 21/17/17 24/14/17 25/13/17
f 14/3/18 1/2/18 2/22/18
f 5/24/19 18/11/19 17/8/19 4/7/19
f 3/4/20 4/7/20 16/5/20
f 20/25/21 19/10/21 6/9/21 7/26/21
f 5/24/22 6/9/22 18/11/22
f 13/27/23 20/25/23 7/26/23 1/28/23
f 24/14/24 23/23/24 11/18/24 19/10/24
f 25/13/25 12/12/25 8/29/25
f 19/10/26 12/12/26 24/14/26
f 23/23/27 22/16/27 17/8/27 11/18/27
f 8/29/28 12/12/28 20/25/28 13/27/28
f 10/15/29 17/8/29 22/16/29
f 15/6/30 10/15/30 21/17/30
f 9/19/31 15/6/31 21/17/31
f 19/10/32 20/25/32 12/12/32
f 17/8/33 18/11/33 11/18/33
f 8/20/34 13/1/34 14/3/34
o island.soil_柱体.004
v 1.054143 3.400088 -3.934119
v 4.010164 3.380517 -2.426613
v 4.454054 3.372320 0.843893
v 0.950269 3.269330 4.615514
v -2.109837 3.273234 4.155067
v -4.934327 3.397358 0.908242
v -3.670026 3.398996 -3.010259
v 3.828982 3.581523 -2.406774
v 3.931514 3.580685 -2.262253
v 4.010140 3.480516 -2.426633
v 1.049590 3.499781 -3.901827
v 0.941270 3.599072 -3.810206
v 1.128493 3.598505 -3.783968
v -1.959699 3.477358 4.076592
v -2.124191 3.480367 3.986297
v -2.109861 3.373213 4.155047
v 0.950245 3.369319 4.615494
v 0.980927 3.473904 4.435511
v 0.813992 3.472030 4.493881
v -4.756310 3.591155 0.960553
v -4.791210 3.594078 0.789968
v -4.886195 3.495915 0.898346
v -3.623718 3.598937 -2.828306
v -3.494871 3.599000 -2.942668
v -3.636333 3.498988 -2.972291
v 4.413282 3.471435 0.830952
v 4.335132 3.570303 0.711333
v 4.280533 3.568054 0.883673
vt 0.116671 1.000000
vt 0.283339 1.000000
vt 0.282864 1.000000
vt 0.117483 1.000000
vt 0.700006 1.000000
vt 0.833333 1.000000
vt 0.833333 1.000000
vt 0.700488 1.000000
vt 0.416667 1.000000
vt 0.541667 1.000000
vt 0.541667 1.000000
vt 0.416667 1.000000
vt 0.301806 0.031538
vt 0.310745 0.033973
vt 0.462698 0.177923
vt 0.465431 0.186696
vt 0.453536 0.360966
vt 0.448691 0.369913
vt 0.313867 0.464685
vt 0.304941 0.466755
vt 0.102606 0.418902
vt 0.096386 0.412479
vt 0.029861 0.208899
vt 0.030604 0.199826
vt 0.131103 0.050665
vt 0.139409 0.046429
vt 0.000000 1.000000
vt 0.000258 1.000000
vt 0.457847 0.369984
vt 0.310007 0.471783
vt 0.315993 0.469710
vt 0.130009 0.042153
vt 0.310000 0.026077
vt 0.025018 0.202760
vt 0.096220 0.420553
vt 0.468924 0.179404
vt 0.958333 1.000000
vt 0.954566 1.000000
vn -0.8725 0.3994 -0.2814
vn 0.9734 0.1913 -0.1258
vn -0.1488 0.0002 0.9889
vn 0.7191 0.1908 0.6682
vn 0.0020 0.9999 0.0141
vn -0.1811 0.3498 -0.9191
vn -0.7368 0.2106 0.6425
vn 0.4379 0.8454 -0.3057
vn 0.0970 0.7301 -0.6765
vn -0.2772 0.8003 0.5317
vn 0.1712 0.8389 0.5167
vn -0.6286 0.7647 0.1417
vn -0.4335 0.7576 -0.4880
vn 0.6284 0.7494 0.2088
vn 0.3467 0.6462 -0.6798
vn -0.1059 0.6950 0.7112
vn -0.5872 0.6133 0.5283
vn -0.8262 0.4966 -0.2662
vn -0.1637 0.5324 -0.8305
vn 0.5648 0.6264 0.5373
vn 0.7710 0.6293 -0.0979
vn 0.4457 0.1528 -0.8821
usemtl grass
s off
f 32/30/35 31/31/35 47/32/35 50/33/35
f 28/34/36 27/35/36 35/36/36 51/37/36
f 30/38/37 29/39/37 42/40/37 41/41/37
f 29/39/38 28/34/38 51/37/38 42/40/38
f 44/42/39 43/43/39 53/44/39 52/45/39 34/46/39 33/47/39 38/48/39 37/49/39 49/50/39 48/51/39 46/52/39 45/53/39 40/54/39 39/55/39
f 26/56/40 32/30/40 50/33/40 36/57/40
f 31/31/41 30/38/41 41/41/41 47/32/41
f 33/47/42 34/46/42 35/58/42
f 36/59/43 37/49/43 38/60/43
f 39/55/44 40/54/44 41/61/44
f 42/62/45 43/43/45 44/42/45
f 45/53/46 46/52/46 47/63/46
f 48/51/47 49/50/47 50/64/47
f 51/65/48 52/45/48 53/44/48
f 35/58/49 36/59/49 38/48/49 33/47/49
f 41/61/50 42/62/50 44/42/50 39/55/50
f 47/63/51 41/61/51 40/54/51 45/53/51
f 50/64/52 47/63/52 46/52/52 48/51/52
f 36/59/53 50/64/53 49/50/53 37/49/53
f 53/44/54 43/43/54 42/62/54 51/65/54
f 34/46/55 52/45/55 51/65/55 35/58/55
f 27/35/56 26/66/56 36/67/56 35/36/56
