# Blender 3.2.0
# www.blender.org
mtllib islands_set_remade.mtl
o island.000.whole
v 0.000000 4.000000 -10.000000
v 6.356848 3.970235 -6.548576
v 10.759654 4.000000 0.759654
v 7.830722 4.000000 7.830722
v 0.000000 -2.803733 0.122084
v 0.547913 3.762851 9.554020
v -6.922637 3.462646 6.632530
v -10.303862 4.000000 -0.050644
v -8.036303 3.849887 -7.541605
v 0.177268 0.363103 -6.148584
v 3.744945 3.111111 -9.041097
v 3.078240 1.378923 -6.837223
v 4.758555 0.542523 -4.299941
v 2.745213 -0.846319 -2.113047
v 0.481802 -1.844382 -0.857411
v 9.041097 3.111111 -3.744945
v 7.325133 1.502877 -3.051783
v 6.565595 0.549425 0.841576
v 3.276237 -1.024173 0.077657
v 9.041097 3.111111 3.744945
v 7.080416 1.224553 2.832070
v 4.960439 0.597061 4.563439
v 2.644324 -0.652674 2.841435
v 0.907487 -1.880965 0.053811
v 3.655425 3.149634 9.150915
v 3.403404 1.485548 6.923228
v -0.359122 0.266392 6.521227
v 0.092344 -1.820097 1.617624
v -3.697792 3.072745 9.003785
v -2.832070 1.049956 6.837223
v -1.604062 -0.656747 4.067295
v -4.737604 0.194616 4.243196
v -0.767008 -2.165736 1.074680
v -9.041097 3.111111 3.744946
v -6.837223 1.049956 2.832071
v -6.425302 0.278942 0.243434
v -1.620316 -2.025504 -0.045750
v -9.041096 3.111111 -3.744947
v -6.905598 1.064470 -2.607888
v -4.543375 0.278942 -4.299939
v -0.898839 -2.064502 -1.402722
v -3.744945 3.111111 -9.041097
v -2.847057 1.248170 -6.994552
v 0.013768 -0.942044 -3.761653
v 7.825054 4.499927 7.837112
v 10.753986 4.499927 0.766045
v 0.542245 4.262778 9.560410
v -6.928304 3.962573 6.638920
v -10.309529 4.499927 -0.044253
v -8.041970 4.349814 -7.535214
v -0.005667 4.499927 -9.993609
v 6.351180 4.470162 -6.542185
v 0.009762 3.957714 -10.143585
v 6.459602 3.942828 -6.654361
v 10.901157 3.950689 0.752922
v 7.923173 3.942874 7.934112
v 0.031109 -2.950437 0.125253
v 0.541141 3.723457 9.698596
v -7.020818 3.418329 6.736916
v -10.445112 3.950225 -0.042238
v -8.134192 3.791848 -7.639325
v 0.182331 0.236306 -6.228565
v 3.808886 3.093917 -9.175693
v 3.119527 1.256130 -6.912835
v 4.819225 0.418850 -4.359305
v 2.793025 -0.982652 -2.153386
v 0.536163 -1.973879 -0.910096
v 9.173782 3.099090 -3.813865
v 7.411916 1.387801 -3.093328
v 6.643049 0.421031 0.845560
v 3.333451 -1.162829 0.078730
v 9.144461 3.011408 3.788246
v 7.163813 1.106033 2.870774
v 5.029771 0.482297 4.630685
v 2.682996 -0.790279 2.886926
v 0.980830 -2.011799 0.055599
v 3.696842 3.104469 9.287827
v 3.448252 1.361870 6.995286
v -0.357455 0.141355 6.604070
v 0.123408 -1.954076 1.677497
v -3.757509 3.083339 9.140977
v -2.871121 0.930723 6.919432
v -1.621573 -0.793671 4.125990
v -4.798582 0.069209 4.298464
v -0.796041 -2.300749 1.133235
v -9.175858 3.095640 3.808980
v -6.924907 0.931443 2.859751
v -6.521456 0.163815 0.243747
v -1.682046 -2.162201 -0.043942
v -9.158303 3.027265 -3.786567
v -6.989881 0.944998 -2.641399
v -4.609089 0.161108 -4.365489
v -0.916071 -2.204041 -1.454991
v -3.789180 3.049722 -9.170613
v -2.879463 1.125586 -7.074696
v 0.024859 -1.076492 -3.827234
v 7.900200 4.592872 7.927746
v 10.870625 4.593971 0.758883
v 0.533738 4.358342 9.675714
v -7.008686 4.053898 6.726662
v -10.425034 4.595026 -0.033539
v -8.127612 4.441444 -7.617491
v 0.004828 4.596155 -10.108196
v 6.428797 4.569673 -6.623260
vn 0.3430 -0.7499 -0.5657
vn 0.2728 -0.9054 -0.3253
vn -0.5981 -0.5565 -0.5767
vn -0.4087 -0.8923 -0.1917
vn -0.8682 -0.4961 0.0096
vn -0.4407 -0.8685 0.2269
vn -0.5509 -0.7506 0.3647
vn -0.0116 -0.8351 0.5500
vn -0.1566 -0.7524 0.6399
vn 0.6744 -0.6354 0.3762
vn 0.3910 -0.8311 0.3954
vn 0.6348 -0.4851 0.6015
vn 0.4196 -0.8871 0.1923
vn 0.6729 -0.7359 0.0756
vn 0.6593 -0.6731 -0.3350
vn 0.3373 -0.9282 -0.1571
vn 0.5146 -0.6527 -0.5560
vn 0.2266 -0.9192 -0.3221
vn 0.1408 -0.7986 -0.5851
vn 0.3267 0.7341 -0.5953
vn 0.6114 0.6989 -0.3712
vn 0.8260 -0.4479 0.3421
vn 0.1969 0.4134 0.8890
vn -0.1981 0.8878 0.4154
vn -0.6172 0.6953 0.3682
vn -0.9445 -0.1675 -0.2826
vn -0.2895 0.2128 -0.9332
vn -0.0083 -0.6540 0.7565
vn -0.5011 -0.7035 0.5040
vn -0.6537 -0.7567 -0.0000
vn -0.0000 -0.7271 -0.6866
vn -0.3818 -0.8417 -0.3818
vn 0.4771 0.0166 -0.8787
vn 0.5726 -0.5868 -0.5726
vn -0.1613 -0.8774 -0.4517
vn -0.4266 -0.8870 -0.1767
vn 0.2967 -0.8463 -0.4424
vn -0.0323 -0.7461 -0.6650
vn -0.1744 -0.8613 -0.4773
vn -0.4324 -0.8867 0.1638
vn -0.4700 -0.7495 -0.4662
vn -0.4332 -0.8776 -0.2051
vn -0.2969 -0.9057 0.3026
vn -0.6816 -0.7317 0.0066
vn -0.2153 -0.8711 0.4413
vn 0.0628 -0.8840 0.4633
vn 0.1157 -0.9101 0.3979
vn -0.3965 -0.7447 0.5368
vn 0.2104 -0.8815 0.4227
vn 0.3385 -0.9193 0.2010
vn 0.1968 -0.7960 0.5724
vn 0.3242 -0.9235 0.2049
vn 0.4361 -0.8870 -0.1521
vn 0.4819 -0.7331 0.4799
vn 0.3902 -0.9030 0.1798
vn 0.1988 -0.8919 -0.4061
vn 0.6722 -0.7387 -0.0498
vn 0.3102 -0.9330 -0.1824
vn 0.4234 -0.8889 -0.1748
vn 0.6353 -0.7722 -0.0000
vn 0.4402 -0.7658 -0.4688
vn -0.0113 0.9999 0.0128
vn -0.8927 -0.0159 0.4504
vn -0.3636 -0.0160 0.9314
vn 0.2306 -0.0098 0.9730
vn 0.8564 0.0163 -0.5160
vn 0.9239 0.0056 0.3827
vn -0.9571 -0.0071 -0.2896
vn -0.2927 0.0089 -0.9562
vn -0.3299 0.7618 0.5576
vn -0.2660 0.9073 0.3257
vn 0.6009 0.5504 0.5796
vn 0.3952 0.8992 0.1879
vn 0.8721 0.4893 -0.0091
vn 0.4256 0.8785 -0.2170
vn 0.5551 0.7421 -0.3757
vn 0.0025 0.8415 -0.5403
vn 0.1498 0.7393 -0.6566
vn -0.6655 0.6455 -0.3748
vn -0.3924 0.8269 -0.4027
vn -0.6379 0.4775 -0.6042
vn -0.4183 0.8876 -0.1927
vn -0.6728 0.7359 -0.0759
vn -0.6520 0.6840 0.3271
vn -0.3366 0.9286 0.1565
vn -0.5153 0.6516 0.5567
vn -0.2261 0.9192 0.3224
vn -0.1342 0.7888 0.5998
vn -0.3187 -0.7451 0.5859
vn -0.5991 -0.7152 0.3600
vn -0.8292 0.4411 -0.3434
vn -0.1984 -0.4255 -0.8829
vn 0.1840 -0.9080 -0.3763
vn 0.5914 -0.7238 -0.3555
vn 0.9445 0.1653 0.2839
vn 0.2909 -0.2189 0.9314
vn 0.0131 0.6518 -0.7583
vn 0.5007 0.7015 -0.5072
vn 0.6540 0.7565 -0.0053
vn -0.0038 0.7247 0.6890
vn 0.3840 0.8386 0.3864
vn -0.4756 -0.0596 0.8776
vn -0.5735 0.5852 0.5733
vn 0.1615 0.8779 0.4508
vn 0.4258 0.8875 0.1761
vn -0.2966 0.8460 0.4431
vn 0.0310 0.7430 0.6686
vn 0.1743 0.8607 0.4783
vn 0.4328 0.8866 -0.1632
vn 0.4713 0.7479 0.4675
vn 0.4337 0.8764 0.2094
vn 0.2978 0.9057 -0.3016
vn 0.6917 0.7222 -0.0064
vn 0.2151 0.8711 -0.4415
vn -0.0601 0.8848 -0.4621
vn -0.1154 0.9100 -0.3983
vn 0.4125 0.7309 -0.5436
vn -0.2106 0.8815 -0.4226
vn -0.3395 0.9190 -0.2005
vn -0.1940 0.7910 -0.5802
vn -0.3237 0.9239 -0.2040
vn -0.4361 0.8869 0.1524
vn -0.4824 0.7327 -0.4801
vn -0.3901 0.9028 -0.1809
vn -0.1988 0.8920 0.4060
vn -0.6867 0.7256 0.0440
vn -0.3109 0.9333 0.1798
vn -0.4245 0.8884 0.1745
vn -0.6381 0.7699 0.0064
vn -0.4480 0.7559 0.4774
vn 0.0113 -0.9999 -0.0128
vn 0.8916 -0.0230 -0.4523
vn 0.3652 -0.0256 -0.9306
vn -0.2308 -0.0276 -0.9726
vn -0.8558 -0.0563 0.5142
vn -0.9231 -0.0383 -0.3827
vn 0.9564 -0.0266 0.2909
vn 0.2939 -0.0428 0.9549
vt 1.000000 1.000000
vt 0.250000 0.490000
vt 0.875000 1.000000
vt 0.419706 0.419706
vt 0.750000 1.000000
vt 0.490000 0.250000
vt 0.625000 1.000000
vt 0.419706 0.080294
vt 0.500000 0.500000
vt 0.500000 1.000000
vt 0.250000 0.010000
vt 0.375000 1.000000
vt 0.080294 0.080294
vt 0.250000 1.000000
vt 0.010000 0.250000
vt 0.125000 1.000000
vt 0.080294 0.419706
vt 0.016486 0.779610
vt 0.000000 0.888889
vt 1.000000 0.777778
vt 0.937500 0.944444
vt 0.937500 0.833333
vt 0.875000 0.777778
vt 0.868805 0.661160
vt 0.898160 0.567114
vt 0.195053 0.567114
vt 0.812500 0.944444
vt 0.815897 0.836353
vt 0.750000 0.774365
vt 0.747107 0.664095
vt 0.687500 0.944444
vt 0.687500 0.833333
vt 0.627897 0.775203
vt 0.608393 0.681428
vt 0.775018 0.565229
vt 0.562500 0.944444
vt 0.567982 0.838206
vt 0.500000 0.771437
vt 0.557775 0.617981
vt 0.437500 0.944444
vt 0.437500 0.833333
vt 0.437500 0.722222
vt 0.375000 0.767503
vt 0.410987 0.609002
vt 0.312500 0.944445
vt 0.312500 0.833333
vt 0.250000 0.777778
vt 0.206197 0.612862
vt 0.187500 0.944444
vt 0.192173 0.837487
vt 0.125000 0.777778
vt 0.069721 0.618221
vt 0.062500 0.944444
vt 0.062521 0.833352
vt 1.000000 0.666667
vt 0.010214 0.675746
vt 0.419706 0.080294
vt 0.490000 0.250000
vt 0.250000 0.010000
vt 0.080294 0.080294
vt 0.010000 0.250000
vt 0.080294 0.419706
vt 0.250000 0.490000
vt 0.419706 0.419706
vt 1.000000 1.000000
vt 0.250000 0.490000
vt 0.875000 1.000000
vt 0.419706 0.419706
vt 0.750000 1.000000
vt 0.490000 0.250000
vt 0.625000 1.000000
vt 0.419706 0.080294
vt 0.500000 0.500000
vt 0.500000 1.000000
vt 0.250000 0.010000
vt 0.375000 1.000000
vt 0.080294 0.080294
vt 0.250000 1.000000
vt 0.010000 0.250000
vt 0.125000 1.000000
vt 0.080294 0.419706
vt 0.016486 0.779610
vt 0.000000 0.888889
vt 1.000000 0.777778
vt 0.937500 0.944444
vt 0.937500 0.833333
vt 0.875000 0.777778
vt 0.868805 0.661160
vt 0.898160 0.567114
vt 0.195053 0.567114
vt 0.812500 0.944444
vt 0.815897 0.836353
vt 0.750000 0.774365
vt 0.747107 0.664095
vt 0.687500 0.944444
vt 0.687500 0.833333
vt 0.627897 0.775203
vt 0.608393 0.681428
vt 0.775018 0.565229
vt 0.562500 0.944444
vt 0.567982 0.838206
vt 0.500000 0.771437
vt 0.557775 0.617981
vt 0.437500 0.944444
vt 0.437500 0.833333
vt 0.437500 0.722222
vt 0.375000 0.767503
vt 0.410987 0.609002
vt 0.312500 0.944445
vt 0.312500 0.833333
vt 0.250000 0.777778
vt 0.206197 0.612862
vt 0.187500 0.944444
vt 0.192173 0.837487
vt 0.125000 0.777778
vt 0.069721 0.618221
vt 0.062500 0.944444
vt 0.062521 0.833352
vt 1.000000 0.666667
vt 0.010214 0.675746
vt 0.419706 0.080294
vt 0.490000 0.250000
vt 0.250000 0.010000
vt 0.080294 0.080294
vt 0.010000 0.250000
vt 0.080294 0.419706
vt 0.250000 0.490000
vt 0.419706 0.419706
s 0
usemtl rock.img
f 41/52/1 15/26/1 5/9/1
f 15/26/2 41/52/2 44/55/2
f 43/54/3 40/51/3 39/50/3
f 37/48/4 41/52/4 5/9/4
f 39/50/5 36/47/5 35/46/5
f 33/44/6 37/48/6 5/9/6
f 34/45/7 35/46/7 32/43/7
f 28/39/8 33/44/8 5/9/8
f 29/40/9 30/41/9 27/38/9
f 24/35/10 28/39/10 5/9/10
f 4/7/11 25/36/11 26/37/11 20/31/11
f 26/37/12 22/33/12 21/32/12
f 21/32/13 22/33/13 18/29/13
f 20/31/14 21/32/14 18/29/14
f 15/25/15 24/35/15 5/9/15
f 14/24/16 19/30/16 24/35/16
f 17/28/17 13/23/17 12/22/17
f 44/55/18 14/24/18 15/26/18
f 11/21/19 12/22/19 10/18/19
f 1/2/20 2/4/20 11/21/20
f 2/4/21 3/6/21 16/27/21
f 3/6/22 4/8/22 20/31/22
f 4/8/23 6/11/23 25/36/23
f 6/11/24 7/13/24 29/40/24
f 7/13/25 8/15/25 34/45/25
f 8/15/26 9/17/26 38/49/26
f 1/2/27 42/53/27 9/17/27
f 6/10/28 29/40/28 27/38/28 25/36/28
f 7/12/29 34/45/29 32/43/29 29/40/29
f 8/14/30 38/49/30 39/50/30 34/45/30
f 10/19/31 42/53/31 1/1/31 11/21/31
f 9/16/32 42/53/32 43/54/32 38/49/32
f 2/4/33 1/2/33 51/63/33 52/64/33
f 2/3/34 16/27/34 17/28/34 11/21/34
f 44/56/35 40/51/35 43/54/35 10/18/35
f 41/52/36 36/47/36 39/50/36 40/51/36
f 10/20/37 14/24/37 44/56/37
f 42/53/38 10/19/38 43/54/38
f 40/51/39 44/56/39 41/52/39
f 37/48/40 32/43/40 35/46/40 36/47/40
f 38/49/41 43/54/41 39/50/41
f 36/47/42 41/52/42 37/48/42
f 37/48/43 33/44/43 31/42/43 32/43/43
f 34/45/44 39/50/44 35/46/44
f 31/42/45 27/38/45 30/41/45 32/43/45
f 28/39/46 31/42/46 33/44/46
f 31/42/47 28/39/47 23/34/47 27/38/47
f 29/40/48 32/43/48 30/41/48
f 23/34/49 22/33/49 26/37/49 27/38/49
f 23/34/50 24/35/50 19/30/50 22/33/50
f 25/36/51 27/38/51 26/37/51
f 24/35/52 23/34/52 28/39/52
f 19/30/53 13/23/53 17/28/53 18/29/53
f 20/31/54 26/37/54 21/32/54
f 18/29/55 22/33/55 19/30/55
f 14/24/56 10/20/56 12/22/56 13/23/56
f 16/27/57 18/29/57 17/28/57
f 15/26/58 14/24/58 24/35/58
f 13/23/59 19/30/59 14/24/59
f 3/5/60 20/31/60 18/29/60 16/27/60
f 11/21/61 17/28/61 12/22/61
f 49/61/62 48/60/62 47/59/62 45/57/62 46/58/62 52/64/62 51/63/62 50/62/62
f 8/15/63 7/13/63 48/60/63 49/61/63
f 7/13/64 6/11/64 47/59/64 48/60/64
f 6/11/65 4/8/65 45/57/65 47/59/65
f 3/6/66 2/4/66 52/64/66 46/58/66
f 4/8/67 3/6/67 46/58/67 45/57/67
f 9/17/68 8/15/68 49/61/68 50/62/68
f 1/2/69 9/17/69 50/62/69 51/63/69
usemtl stroke.img
f 93/116/70 57/73/70 67/90/70
f 67/90/71 96/119/71 93/116/71
f 95/118/72 91/114/72 92/115/72
f 89/112/73 57/73/73 93/116/73
f 91/114/74 87/110/74 88/111/74
f 85/108/75 57/73/75 89/112/75
f 86/109/76 84/107/76 87/110/76
f 80/103/77 57/73/77 85/108/77
f 81/104/78 79/102/78 82/105/78
f 76/99/79 57/73/79 80/103/79
f 56/71/80 72/95/80 78/101/80 77/100/80
f 78/101/81 73/96/81 74/97/81
f 73/96/82 70/93/82 74/97/82
f 72/95/83 70/93/83 73/96/83
f 67/89/84 57/73/84 76/99/84
f 66/88/85 76/99/85 71/94/85
f 69/92/86 64/86/86 65/87/86
f 96/119/87 67/90/87 66/88/87
f 63/85/88 62/82/88 64/86/88
f 53/66/89 63/85/89 54/68/89
f 54/68/90 68/91/90 55/70/90
f 55/70/91 72/95/91 56/72/91
f 56/72/92 77/100/92 58/75/92
f 58/75/93 81/104/93 59/77/93
f 59/77/94 86/109/94 60/79/94
f 60/79/95 90/113/95 61/81/95
f 53/66/96 61/81/96 94/117/96
f 58/74/97 77/100/97 79/102/97 81/104/97
f 59/76/98 81/104/98 84/107/98 86/109/98
f 60/78/99 86/109/99 91/114/99 90/113/99
f 62/83/100 63/85/100 53/65/100 94/117/100
f 61/80/101 90/113/101 95/118/101 94/117/101
f 54/68/102 104/128/102 103/127/102 53/66/102
f 54/67/103 63/85/103 69/92/103 68/91/103
f 96/120/104 62/82/104 95/118/104 92/115/104
f 93/116/105 92/115/105 91/114/105 88/111/105
f 62/84/106 96/120/106 66/88/106
f 94/117/107 95/118/107 62/83/107
f 92/115/108 93/116/108 96/120/108
f 89/112/109 88/111/109 87/110/109 84/107/109
f 90/113/110 91/114/110 95/118/110
f 88/111/111 89/112/111 93/116/111
f 89/112/112 84/107/112 83/106/112 85/108/112
f 86/109/113 87/110/113 91/114/113
f 83/106/114 84/107/114 82/105/114 79/102/114
f 80/103/115 85/108/115 83/106/115
f 83/106/116 79/102/116 75/98/116 80/103/116
f 81/104/117 82/105/117 84/107/117
f 75/98/118 79/102/118 78/101/118 74/97/118
f 75/98/119 74/97/119 71/94/119 76/99/119
f 77/100/120 78/101/120 79/102/120
f 76/99/121 80/103/121 75/98/121
f 71/94/122 70/93/122 69/92/122 65/87/122
f 72/95/123 73/96/123 78/101/123
f 70/93/124 71/94/124 74/97/124
f 66/88/125 65/87/125 64/86/125 62/84/125
f 68/91/126 69/92/126 70/93/126
f 67/90/127 76/99/127 66/88/127
f 65/87/128 66/88/128 71/94/128
f 55/69/129 68/91/129 70/93/129 72/95/129
f 63/85/130 64/86/130 69/92/130
f 101/125/131 102/126/131 103/127/131 104/128/131 98/122/131 97/121/131 99/123/131 100/124/131
f 60/79/132 101/125/132 100/124/132 59/77/132
f 59/77/133 100/124/133 99/123/133 58/75/133
f 58/75/134 99/123/134 97/121/134 56/72/134
f 55/70/135 98/122/135 104/128/135 54/68/135
f 56/72/136 97/121/136 98/122/136 55/70/136
f 61/81/137 102/126/137 101/125/137 60/79/137
f 53/66/138 103/127/138 102/126/138 61/81/138
o island.000.rock
v 0.000000 4.000000 -10.000000
v 6.356848 3.970235 -6.548576
v 10.759654 4.000000 0.759654
v 7.830722 4.000000 7.830722
v 0.000000 -2.803733 0.122084
v 0.547913 3.762851 9.554020
v -6.922637 3.462646 6.632530
v -10.303862 4.000000 -0.050644
v -8.036303 3.849887 -7.541605
v 0.177268 0.363103 -6.148584
v 3.744945 3.111111 -9.041097
v 3.078240 1.378923 -6.837223
v 4.758555 0.542523 -4.299941
v 2.745213 -0.846319 -2.113047
v 0.481802 -1.844382 -0.857411
v 9.041097 3.111111 -3.744945
v 7.325133 1.502877 -3.051783
v 6.565595 0.549425 0.841576
v 3.276237 -1.024173 0.077657
v 9.041097 3.111111 3.744945
v 7.080416 1.224553 2.832070
v 4.960439 0.597061 4.563439
v 2.644324 -0.652674 2.841435
v 0.907487 -1.880965 0.053811
v 3.655425 3.149634 9.150915
v 3.403404 1.485548 6.923228
v -0.359122 0.266392 6.521227
v 0.092344 -1.820097 1.617624
v -3.697792 3.072745 9.003785
v -2.832070 1.049956 6.837223
v -1.604062 -0.656747 4.067295
v -4.737604 0.194616 4.243196
v -0.767008 -2.165736 1.074680
v -9.041097 3.111111 3.744946
v -6.837223 1.049956 2.832071
v -6.425302 0.278942 0.243434
v -1.620316 -2.025504 -0.045750
v -9.041096 3.111111 -3.744947
v -6.905598 1.064470 -2.607888
v -4.543375 0.278942 -4.299939
v -0.898839 -2.064502 -1.402722
v -3.744945 3.111111 -9.041097
v -2.847057 1.248170 -6.994552
v 0.013768 -0.942044 -3.761653
vn 0.3430 -0.7499 -0.5657
vn 0.2728 -0.9054 -0.3253
vn -0.5981 -0.5565 -0.5767
vn -0.4087 -0.8923 -0.1917
vn -0.8682 -0.4961 0.0096
vn -0.4407 -0.8685 0.2269
vn -0.5509 -0.7506 0.3647
vn -0.0116 -0.8351 0.5500
vn -0.1566 -0.7524 0.6399
vn 0.6744 -0.6354 0.3762
vn 0.3910 -0.8311 0.3954
vn 0.6348 -0.4851 0.6015
vn 0.4196 -0.8871 0.1923
vn 0.6729 -0.7359 0.0756
vn 0.6593 -0.6731 -0.3350
vn 0.3373 -0.9282 -0.1571
vn 0.5146 -0.6527 -0.5560
vn 0.2266 -0.9192 -0.3221
vn 0.1408 -0.7986 -0.5851
vn 0.3267 0.7341 -0.5953
vn 0.6114 0.6989 -0.3712
vn 0.8260 -0.4479 0.3421
vn 0.1969 0.4134 0.8890
vn -0.1981 0.8878 0.4154
vn -0.6172 0.6953 0.3682
vn -0.9445 -0.1675 -0.2826
vn -0.2895 0.2128 -0.9332
vn -0.0083 -0.6540 0.7565
vn -0.5011 -0.7035 0.5040
vn -0.6537 -0.7567 -0.0000
vn -0.0000 -0.7271 -0.6866
vn -0.3818 -0.8417 -0.3818
vn 0.5726 -0.5868 -0.5726
vn -0.1613 -0.8774 -0.4517
vn -0.4266 -0.8870 -0.1767
vn 0.2967 -0.8463 -0.4424
vn -0.0323 -0.7461 -0.6650
vn -0.1744 -0.8613 -0.4773
vn -0.4324 -0.8867 0.1638
vn -0.4700 -0.7495 -0.4662
vn -0.4332 -0.8776 -0.2051
vn -0.2969 -0.9057 0.3026
vn -0.6816 -0.7317 0.0066
vn -0.2153 -0.8711 0.4413
vn 0.0628 -0.8840 0.4633
vn 0.1157 -0.9101 0.3979
vn -0.3965 -0.7447 0.5368
vn 0.2104 -0.8815 0.4227
vn 0.3385 -0.9193 0.2010
vn 0.1968 -0.7960 0.5724
vn 0.3242 -0.9235 0.2049
vn 0.4361 -0.8870 -0.1521
vn 0.4819 -0.7331 0.4799
vn 0.3902 -0.9030 0.1798
vn 0.1988 -0.8919 -0.4061
vn 0.6722 -0.7387 -0.0498
vn 0.3102 -0.9330 -0.1824
vn 0.4234 -0.8889 -0.1748
vn 0.6353 -0.7722 -0.0000
vn 0.4402 -0.7658 -0.4688
vt 0.250000 0.490000
vt 1.000000 1.000000
vt 0.419706 0.419706
vt 0.875000 1.000000
vt 0.490000 0.250000
vt 0.750000 1.000000
vt 0.625000 1.000000
vt 0.419706 0.080294
vt 0.500000 0.500000
vt 0.250000 0.010000
vt 0.500000 1.000000
vt 0.080294 0.080294
vt 0.375000 1.000000
vt 0.010000 0.250000
vt 0.250000 1.000000
vt 0.080294 0.419706
vt 0.125000 1.000000
vt 0.016486 0.779610
vt 0.000000 0.888889
vt 1.000000 0.777778
vt 0.937500 0.944444
vt 0.937500 0.833333
vt 0.875000 0.777778
vt 0.868805 0.661160
vt 0.898160 0.567114
vt 0.195053 0.567114
vt 0.812500 0.944444
vt 0.815897 0.836353
vt 0.750000 0.774365
vt 0.747107 0.664095
vt 0.687500 0.944444
vt 0.687500 0.833333
vt 0.627897 0.775203
vt 0.608393 0.681428
vt 0.775018 0.565229
vt 0.562500 0.944444
vt 0.567982 0.838206
vt 0.500000 0.771437
vt 0.557775 0.617981
vt 0.437500 0.944444
vt 0.437500 0.833333
vt 0.437500 0.722222
vt 0.375000 0.767503
vt 0.410987 0.609002
vt 0.312500 0.944445
vt 0.312500 0.833333
vt 0.250000 0.777778
vt 0.206197 0.612862
vt 0.187500 0.944444
vt 0.192173 0.837487
vt 0.125000 0.777778
vt 0.069721 0.618221
vt 0.062500 0.944444
vt 0.062521 0.833352
vt 1.000000 0.666667
vt 0.010214 0.675746
s 0
usemtl rock.img
f 145/180/139 119/154/139 109/137/139
f 119/154/140 145/180/140 148/183/140
f 147/182/141 144/179/141 143/178/141
f 141/176/142 145/180/142 109/137/142
f 143/178/143 140/175/143 139/174/143
f 137/172/144 141/176/144 109/137/144
f 138/173/145 139/174/145 136/171/145
f 132/167/146 137/172/146 109/137/146
f 133/168/147 134/169/147 131/166/147
f 128/163/148 132/167/148 109/137/148
f 108/135/149 129/164/149 130/165/149 124/159/149
f 130/165/150 126/161/150 125/160/150
f 125/160/151 126/161/151 122/157/151
f 124/159/152 125/160/152 122/157/152
f 119/153/153 128/163/153 109/137/153
f 118/152/154 123/158/154 128/163/154
f 121/156/155 117/151/155 116/150/155
f 148/183/156 118/152/156 119/154/156
f 115/149/157 116/150/157 114/146/157
f 105/129/158 106/131/158 115/149/158
f 106/131/159 107/133/159 120/155/159
f 107/133/160 108/136/160 124/159/160
f 108/136/161 110/138/161 129/164/161
f 110/138/162 111/140/162 133/168/162
f 111/140/163 112/142/163 138/173/163
f 112/142/164 113/144/164 142/177/164
f 105/129/165 146/181/165 113/144/165
f 110/139/166 133/168/166 131/166/166 129/164/166
f 111/141/167 138/173/167 136/171/167 133/168/167
f 112/143/168 142/177/168 143/178/168 138/173/168
f 114/147/169 146/181/169 105/130/169 115/149/169
f 113/145/170 146/181/170 147/182/170 142/177/170
f 106/132/171 120/155/171 121/156/171 115/149/171
f 148/184/172 144/179/172 147/182/172 114/146/172
f 145/180/173 140/175/173 143/178/173 144/179/173
f 114/148/174 118/152/174 148/184/174
f 146/181/175 114/147/175 147/182/175
f 144/179/176 148/184/176 145/180/176
f 141/176/177 136/171/177 139/174/177 140/175/177
f 142/177/178 147/182/178 143/178/178
f 140/175/179 145/180/179 141/176/179
f 141/176/180 137/172/180 135/170/180 136/171/180
f 138/173/181 143/178/181 139/174/181
f 135/170/182 131/166/182 134/169/182 136/171/182
f 132/167/183 135/170/183 137/172/183
f 135/170/184 132/167/184 127/162/184 131/166/184
f 133/168/185 136/171/185 134/169/185
f 127/162/186 126/161/186 130/165/186 131/166/186
f 127/162/187 128/163/187 123/158/187 126/161/187
f 129/164/188 131/166/188 130/165/188
f 128/163/189 127/162/189 132/167/189
f 123/158/190 117/151/190 121/156/190 122/157/190
f 124/159/191 130/165/191 125/160/191
f 122/157/192 126/161/192 123/158/192
f 118/152/193 114/148/193 116/150/193 117/151/193
f 120/155/194 122/157/194 121/156/194
f 119/154/195 118/152/195 128/163/195
f 117/151/196 123/158/196 118/152/196
f 107/134/197 124/159/197 122/157/197 120/155/197
f 115/149/198 121/156/198 116/150/198
o island.000.grass
v 0.000000 4.000000 -10.000000
v 6.356848 3.970235 -6.548576
v 10.759654 4.000000 0.759654
v 7.830722 4.000000 7.830722
v 0.547913 3.762851 9.554020
v -6.922637 3.462646 6.632530
v -10.303862 4.000000 -0.050644
v -8.036303 3.849887 -7.541605
v 7.825054 4.499927 7.837112
v 10.753986 4.499927 0.766045
v 0.542245 4.262778 9.560410
v -6.928304 3.962573 6.638920
v -10.309529 4.499927 -0.044253
v -8.041970 4.349814 -7.535214
v -0.005667 4.499927 -9.993609
v 6.351180 4.470162 -6.542185
vn 0.4771 0.0166 -0.8787
vn -0.0113 0.9999 0.0128
vn -0.8927 -0.0159 0.4504
vn -0.3636 -0.0160 0.9314
vn 0.2306 -0.0098 0.9730
vn 0.8564 0.0163 -0.5160
vn 0.9239 0.0056 0.3827
vn -0.9571 -0.0071 -0.2896
vn -0.2927 0.0089 -0.9562
vt 0.250000 0.490000
vt 0.419706 0.419706
vt 0.490000 0.250000
vt 0.419706 0.080294
vt 0.250000 0.010000
vt 0.080294 0.080294
vt 0.010000 0.250000
vt 0.080294 0.419706
vt 0.419706 0.080294
vt 0.490000 0.250000
vt 0.250000 0.010000
vt 0.080294 0.080294
vt 0.010000 0.250000
vt 0.080294 0.419706
vt 0.250000 0.490000
vt 0.419706 0.419706
s 0
usemtl grass.img
f 150/186/199 149/185/199 163/199/199 164/200/199
f 161/197/200 160/196/200 159/195/200 157/193/200 158/194/200 164/200/200 163/199/200 162/198/200
f 155/191/201 154/190/201 160/196/201 161/197/201
f 154/190/202 153/189/202 159/195/202 160/196/202
f 153/189/203 152/188/203 157/193/203 159/195/203
f 151/187/204 150/186/204 164/200/204 158/194/204
f 152/188/205 151/187/205 158/194/205 157/193/205
f 156/192/206 155/191/206 161/197/206 162/198/206
f 149/185/207 156/192/207 162/198/207 163/199/207
