# Blender 3.2.0
# www.blender.org
mtllib ../../korok_texture_lib.mtl
o korok
v 0.081249 0.847346 -0.328729
v 0.001510 0.138875 0.465854
v -0.309372 -0.469784 0.428720
v -0.498918 0.043494 -0.004054
v 0.214992 -0.521077 0.414795
v -0.000563 -0.689650 -0.477000
v -0.234448 -0.906882 0.009277
v -0.154467 -0.770162 0.141345
v -0.304191 0.853833 -0.263536
v -0.521851 -0.120370 0.127596
v -0.849090 -0.000820 0.002358
v -0.475528 -0.729805 0.031043
v -0.508077 -0.079078 -0.144624
v -0.429203 -0.573738 -0.328504
v 0.235491 -0.895738 0.103840
v 0.475791 0.053040 -0.070900
v 0.301102 -0.592733 -0.439542
v 0.253772 -0.872581 -0.034810
v 0.232791 -0.756581 0.173650
v 0.850029 0.002152 0.001796
v 0.515656 -0.667943 -0.025337
v 0.489263 -0.077459 0.155449
v 0.537224 -0.129813 -0.124520
v -0.364397 0.878507 0.163075
v -0.442668 0.805789 -0.099678
v -0.087754 0.878835 -0.044836
v 0.332842 0.837477 0.208955
v 0.292539 0.911239 -0.259849
v 0.140749 0.904229 0.224695
v 0.559636 1.230875 -0.047524
v -0.535878 1.110536 -0.046641
v 0.291861 1.181798 -0.047666
v -0.004225 -0.340853 -0.582899
v -0.335739 -0.923133 -0.014620
v -0.479075 0.851766 0.074650
v -0.412622 0.977959 -0.234848
v -0.080719 0.812043 -0.404253
v -0.265694 -0.358688 -0.573892
v -0.540937 0.087258 0.037132
v -0.319247 -0.598656 0.408975
v 0.017074 -0.721782 0.361918
v -0.293706 -0.717770 -0.380833
v -0.153411 -0.927274 0.004492
v -0.216547 -0.835188 0.181678
v -0.004305 -0.730454 -0.512963
v -0.541065 -0.080684 -0.187726
v -0.923334 0.015381 0.000408
v -0.004329 -0.300707 0.546185
v -0.565563 -0.681191 -0.004459
v -0.562358 -0.178684 0.136489
v 0.116450 0.897812 0.313358
v 0.429183 0.927707 0.160120
v 0.532923 0.085555 -0.005901
v 0.310768 -0.397955 -0.542208
v 0.464053 -0.703235 -0.301135
v 0.332831 -0.881883 -0.108831
v 0.160074 -0.930399 0.100062
v 0.104952 -0.799385 0.133135
v 0.345268 -0.866645 0.129254
v 0.568356 -0.216701 -0.008086
v 0.542950 -0.067297 -0.185051
v 0.919711 -0.001249 0.004379
v 0.543269 -0.640420 0.075408
v 0.493213 0.860110 -0.110479
v -0.075267 0.934682 -0.033931
v 0.315406 0.967849 -0.303911
v 0.630368 1.286221 -0.041391
v -0.543076 1.172003 -0.098007
v -0.590467 1.042659 0.006702
v 0.346302 1.241990 -0.025267
v 0.220081 1.140900 -0.089838
v 0.337730 -0.439126 0.446218
v -0.314337 0.851520 0.267508
v 0.512762 -0.047194 0.180019
vn -0.1592 0.2175 -0.9630
vn -0.3869 -0.7582 -0.5248
vn -0.5681 -0.7257 -0.3882
vn -0.0061 -0.6929 0.7210
vn 0.8003 -0.5868 0.1228
vn 0.0196 -0.0708 0.9973
vn -0.5459 0.0857 -0.8335
vn -0.0656 0.6305 0.7734
vn -0.2850 -0.9454 -0.1578
vn -0.8780 -0.1393 0.4579
vn -0.9874 -0.0514 -0.1495
vn 0.7973 -0.0687 0.5997
vn 0.2536 0.1849 -0.9495
vn 0.3196 -0.7965 -0.5133
vn 0.6161 -0.7861 -0.0501
vn 0.5875 -0.5568 0.5872
vn -0.9914 0.0428 -0.1236
vn 0.4929 0.1060 -0.8636
vn 0.3003 -0.9270 0.2248
vn 0.0210 0.8667 0.4984
vn 0.2238 0.3427 -0.9124
vn 0.4853 0.0897 0.8698
vn 0.6305 0.0625 0.7737
vn -0.8761 -0.3293 0.3521
vn 0.3904 0.7592 0.5207
vn -0.1342 0.7303 0.6698
vn 0.1467 0.4594 -0.8761
vn -0.1248 0.6832 -0.7195
vn 0.7335 0.0847 -0.6743
vn -0.7425 -0.1122 -0.6604
vn -0.5688 0.7088 -0.4172
vn -0.5663 0.7134 0.4129
vn -0.0439 0.9974 -0.0568
vn -0.0021 0.9938 -0.1115
vn 0.9417 0.2505 0.2246
vn 0.9854 0.1663 0.0372
vn -0.9973 0.0737 0.0007
vn 0.7300 0.5636 0.3865
vn 0.8477 0.1229 0.5160
vn -0.0311 0.8733 0.4862
vn 0.1250 -0.2013 -0.9715
vn 0.3934 0.4114 0.8222
vn 0.3655 0.8841 0.2912
vn 0.0927 -0.7978 0.5958
vn 0.1555 -0.3567 -0.9212
vn 0.4663 -0.0875 -0.8803
vn -0.9741 -0.0878 -0.2086
vn -0.4222 -0.1586 -0.8925
vn -0.7754 -0.0793 -0.6265
vn -0.2894 0.7917 0.5380
vn 0.0594 0.2678 -0.9617
vn -0.1073 0.3940 -0.9128
vn -0.3909 0.4415 0.8076
vn -0.1628 -0.7946 -0.5850
vn -0.4266 0.6600 0.6184
vn -0.8634 0.0442 -0.5026
vn -0.9772 0.0952 0.1897
vn 0.8149 0.1538 0.5588
vn 0.5073 -0.5457 0.6670
vn -0.4036 -0.2656 -0.8755
vn -0.7001 0.1110 0.7054
vn 0.1782 -0.7249 0.6654
vn 0.0738 -0.7240 -0.6858
vn 0.7439 0.2080 -0.6351
vn -0.4315 -0.6954 0.5747
vn 0.1440 -0.6541 0.7426
vn 0.1233 -0.9774 -0.1718
vn 0.2832 -0.9117 0.2978
vn -0.2972 -0.9051 0.3041
vn -0.9986 -0.0527 -0.0109
vn 0.7883 -0.0684 0.6114
vn 0.9967 -0.0806 -0.0009
vn 0.3692 -0.1902 0.9097
vn -0.7935 0.0968 -0.6008
vn -0.4310 -0.6621 0.6130
vn -0.0500 -0.7038 0.7087
vn -0.1308 0.3195 0.9385
vn -0.3799 -0.2724 -0.8840
vn -0.1072 0.7528 -0.6494
vn -0.9888 -0.1316 -0.0700
vn 0.6442 -0.0307 -0.7642
vn -0.3187 -0.9265 -0.2000
vn 0.5676 -0.7068 -0.4223
vn 0.6099 -0.3459 0.7130
vn -0.9607 0.1032 0.2576
vn -0.0330 -0.7163 0.6971
vn 0.1707 0.2677 0.9482
vn 0.2070 -0.2822 -0.9367
vn 0.9854 -0.0081 0.1703
vn 0.7937 -0.1454 0.5907
vn 0.4027 0.7750 -0.4871
vn 0.2237 0.4385 0.8704
vn -0.7735 0.0890 -0.6276
vn 0.5683 0.5650 -0.5982
vn -0.7571 0.0964 0.6461
vn -0.4183 0.1591 0.8942
vn 0.7986 0.2355 0.5539
vn 0.6663 0.6152 0.4215
vn 0.1695 0.7201 -0.6728
vn 0.0666 0.8949 -0.4413
vn -0.9184 0.0927 0.3848
vn 0.8375 0.1426 -0.5275
vn 0.0189 0.4016 -0.9156
vn -0.7875 -0.1033 0.6076
vn 0.9980 -0.0228 0.0586
vn -0.1792 -0.1685 0.9693
vn -0.0634 -0.1333 0.9890
vn -0.7740 0.6306 0.0576
vn -0.0456 0.1303 0.9904
vn -0.6645 0.4374 -0.6058
vn -0.2961 0.5655 -0.7698
vn -0.3190 0.9467 -0.0439
vn 0.6274 0.7784 -0.0230
vn -0.1837 -0.5770 -0.7958
vn -0.3654 0.6352 -0.6804
vn -0.1857 -0.7526 0.6317
vn -0.9588 0.0008 -0.2841
vn -0.9743 0.0826 0.2096
vn 0.5495 -0.7430 -0.3822
vn -0.8944 0.3358 -0.2955
vn 0.9895 -0.1162 0.0862
vn 0.5834 -0.8036 0.1177
vn -0.3320 -0.1475 -0.9317
vn -0.7582 -0.0926 0.6454
vn 0.7565 -0.0999 -0.6463
vn -0.9848 -0.0718 -0.1581
vn 0.8720 -0.1223 -0.4739
vn -0.0098 -0.8742 0.4855
vn -0.9877 0.1550 0.0208
vn 0.5534 0.6894 -0.4674
vn -0.0581 0.8772 -0.4766
vn 0.0388 0.9992 -0.0109
vn 0.6857 -0.0730 -0.7242
vn -0.8407 0.0055 0.5415
vn -0.7528 0.6582 -0.0028
vn 0.7447 0.1491 0.6505
vn 0.2597 0.9405 -0.2193
vn 0.3735 0.9269 0.0357
vn -0.2178 -0.8827 -0.4163
vn 0.9807 -0.0879 0.1747
vt 0.302493 0.537401
vt 0.522528 0.497531
vt 0.609930 0.354216
vt 0.644149 0.248980
vt 0.616091 0.603604
vt 0.755341 0.500000
vt 0.072987 0.500059
vt 0.002084 0.342371
vt 0.692506 0.383883
vt 0.670007 0.426340
vt 0.306118 0.373856
vt 0.620986 0.250130
vt 0.662643 0.088556
vt 0.010268 0.304689
vt 0.682054 0.276167
vt 0.745114 0.243527
vt 0.079726 0.269028
vt 0.050013 0.301251
vt 0.728497 0.254191
vt 0.690116 0.614607
vt 0.644236 0.749637
vt 0.341433 0.718017
vt 0.073566 0.647014
vt 0.707603 0.651652
vt 0.016345 0.633379
vt 0.727817 0.604165
vt 0.669610 0.612570
vt 0.660951 0.910688
vt 0.692724 0.744773
vt 0.028150 0.745210
vt 0.600880 0.745587
vt 0.728386 0.757601
vt 0.079726 0.730972
vt 0.402031 0.319214
vt 0.685386 0.273138
vt 0.347945 0.271274
vt 0.361697 0.457278
vt 0.427537 0.656361
vt 0.308060 0.626927
vt 0.411850 0.563155
vt 0.358937 0.774526
vt 0.359130 0.245669
vt 0.356849 0.648393
vt 0.129071 0.500272
vt 0.011809 0.337690
vt 0.692358 0.341681
vt 0.391544 0.276510
vt 0.324732 0.317318
vt 0.986347 0.280578
vt 0.282898 0.441633
vt 0.109058 0.378721
vt 0.631730 0.249687
vt 0.621467 0.353473
vt 0.635492 0.502333
vt 0.707454 0.375694
vt 0.052816 0.371451
vt 0.736570 0.382881
vt 0.693879 0.406895
vt 0.668282 0.387208
vt 0.072573 0.499988
vt 0.755341 0.500000
vt 0.079726 0.269028
vt 0.746589 0.241657
vt 0.662313 0.089588
vt 0.575832 0.496533
vt 0.028340 0.254474
vt 0.689972 0.256181
vt 0.633331 0.245220
vt 0.421545 0.533785
vt 0.393629 0.699563
vt 0.643207 0.752769
vt 0.107462 0.622847
vt 0.728079 0.745100
vt 0.041936 0.701953
vt 0.017529 0.651188
vt 0.707571 0.638992
vt 0.710030 0.694382
vt 0.736494 0.617554
vt 0.692947 0.599874
vt 0.678859 0.575453
vt 0.684478 0.653324
vt 0.679081 0.760083
vt 0.745393 0.757568
vt 0.079726 0.730972
vt 0.662447 0.907637
vt 0.676322 0.745049
vt 0.986347 0.719422
vt 0.347138 0.728778
vt 0.359846 0.457698
vt 0.311641 0.654402
vt 0.357810 0.785036
vt 0.356345 0.247118
vt 0.364218 0.235157
vt 0.359367 0.662829
vt 0.355696 0.638651
vt 0.609249 0.645871
vt 0.424023 0.349802
vt 0.603083 0.752251
s 0
usemtl ice
f 9/11/1 1/1/1 33/44/1
f 14/18/2 6/7/2 7/8/2
f 14/18/3 7/8/3 12/14/3
f 8/10/4 3/3/4 7/9/4
f 8/10/5 7/9/5 6/6/5
f 5/5/6 2/2/6 3/3/6
f 9/11/7 33/44/7 14/18/7
f 4/4/8 11/13/8 10/12/8
f 10/12/9 11/13/9 13/16/9
f 3/3/10 10/12/10 12/15/10
f 12/15/11 10/12/11 14/19/11
f 16/21/12 30/41/12 27/38/12
f 33/44/13 1/1/13 28/39/13
f 6/7/14 17/23/14 18/25/14
f 18/24/15 21/29/15 15/20/15
f 19/27/16 21/29/16 5/5/16
f 15/20/17 19/27/17 18/26/17
f 33/44/18 28/39/18 17/23/18
f 23/32/19 20/28/19 22/31/19
f 20/28/20 16/21/20 22/31/20
f 16/21/21 20/28/21 23/32/21
f 27/38/22 2/2/22 5/5/22
f 5/5/23 22/31/23 27/38/23
f 25/35/24 24/34/24 31/42/24
f 24/34/25 26/37/25 31/42/25
f 32/43/26 29/40/26 30/41/26
f 28/39/27 1/1/27 30/41/27
f 1/1/28 32/43/28 30/41/28
f 23/33/29 17/23/29 28/39/29
f 25/36/30 31/42/30 9/11/30
f 1/1/31 26/37/31 32/43/31
f 26/37/32 29/40/32 32/43/32
f 29/40/33 26/37/33 24/34/33
f 26/37/34 1/1/34 9/11/34
f 23/33/35 28/39/35 16/22/35
f 16/21/36 27/38/36 22/31/36
f 4/4/37 25/35/37 13/16/37
f 13/17/74 9/11/74 14/18/74
f 7/9/75 3/3/75 12/15/75
f 8/10/76 5/5/76 3/3/76
f 29/40/77 24/34/77 2/2/77
f 14/18/78 33/44/78 6/7/78
f 4/4/79 13/16/79 11/13/79
f 14/19/80 10/12/80 13/16/80
f 16/22/81 28/39/81 30/41/81
f 18/26/82 8/10/82 6/6/82
f 18/25/83 17/23/83 21/30/83
f 19/27/84 15/20/84 21/29/84
f 4/4/85 24/34/85 25/35/85
f 8/10/86 19/27/86 5/5/86
f 27/38/87 29/40/87 2/2/87
f 6/7/88 33/44/88 17/23/88
f 21/29/89 23/32/89 22/31/89
f 5/5/90 21/29/90 22/31/90
f 9/11/91 31/42/91 26/37/91
f 27/38/92 30/41/92 29/40/92
f 13/17/93 25/36/93 9/11/93
f 3/3/95 24/34/95 10/12/95
f 2/2/96 24/34/96 3/3/96
f 23/33/127 21/30/127 17/23/127
f 18/26/128 19/27/128 8/10/128
f 4/4/129 10/12/129 24/34/129
usemtl stroke.img
f 35/47/38 36/48/38 69/93/38
f 38/51/39 46/62/39 49/66/39
f 34/46/40 43/58/40 42/55/40
f 73/97/41 51/69/41 48/65/41
f 45/60/42 38/51/42 42/56/42
f 47/64/43 50/68/43 46/63/43
f 39/52/44 47/64/44 46/63/44
f 47/64/45 39/52/45 50/68/45
f 73/97/46 48/65/46 40/53/46
f 52/70/47 64/88/47 74/98/47
f 51/69/48 52/70/48 72/96/48
f 52/70/49 74/98/49 72/96/49
f 55/74/50 45/60/50 56/75/50
f 57/79/51 58/80/51 59/81/51
f 41/54/52 48/65/52 72/96/52
f 54/72/53 45/60/53 55/74/53
f 53/71/54 62/85/54 74/98/54
f 60/82/55 62/85/55 61/83/55
f 72/96/56 74/98/56 63/86/56
f 63/86/57 60/82/57 55/73/57
f 68/92/58 69/93/58 36/48/58
f 66/90/59 71/95/59 65/89/59
f 67/91/60 52/70/60 51/69/60
f 64/88/61 67/91/61 66/90/61
f 66/90/62 67/91/62 71/95/62
f 70/94/63 67/91/63 51/69/63
f 35/47/64 69/93/64 73/97/64
f 68/92/65 36/48/65 65/89/65
f 67/91/66 70/94/66 71/95/66
f 73/97/67 65/89/67 51/69/67
f 65/89/68 37/50/68 66/90/68
f 36/48/69 37/50/69 65/89/69
f 53/71/70 64/87/70 61/83/70
f 46/62/71 38/51/71 36/48/71
f 39/52/72 35/47/72 50/68/72
f 38/51/73 37/50/73 36/48/73
f 49/67/94 44/59/94 34/46/94
f 42/56/97 38/51/97 49/66/97
f 34/45/98 42/56/98 49/66/98
f 41/54/99 44/59/99 40/53/99
f 44/59/100 43/58/100 34/46/100
f 43/58/101 41/54/101 42/57/101
f 50/68/102 40/53/102 49/67/102
f 41/54/103 40/53/103 48/65/103
f 54/72/104 61/84/104 66/90/104
f 46/63/105 50/68/105 49/67/105
f 54/72/106 66/90/106 37/50/106
f 54/72/107 37/50/107 38/51/107
f 56/77/108 63/86/108 55/73/108
f 54/72/109 38/51/109 45/60/109
f 59/81/110 72/96/110 63/86/110
f 41/54/111 72/96/111 59/81/111
f 56/76/112 57/79/112 59/81/112
f 58/80/113 45/61/113 41/54/113
f 65/89/114 69/93/114 68/92/114
f 60/82/115 74/98/115 62/85/115
f 53/71/116 61/83/116 62/85/116
f 74/98/117 60/82/117 63/86/117
f 55/73/118 60/82/118 61/83/118
f 65/89/119 70/94/119 51/69/119
f 52/70/120 67/91/120 64/88/120
f 36/49/121 39/52/121 46/63/121
f 71/95/122 70/94/122 65/89/122
f 48/65/123 51/69/123 72/96/123
f 61/84/124 64/88/124 66/90/124
f 50/68/125 35/47/125 73/97/125
f 74/98/126 64/88/126 53/71/126
f 49/67/130 40/53/130 44/59/130
f 43/58/131 44/59/131 41/54/131
f 41/54/132 45/61/132 42/57/132
f 50/68/133 73/97/133 40/53/133
f 54/72/134 55/74/134 61/84/134
f 56/77/135 59/81/135 63/86/135
f 58/80/136 57/79/136 56/78/136
f 41/54/137 59/81/137 58/80/137
f 58/80/138 56/78/138 45/61/138
f 65/89/139 73/97/139 69/93/139
f 36/49/140 35/47/140 39/52/140
o leaf
v -0.055386 -0.018818 0.450757
v -0.232880 0.823033 0.206247
v 0.135826 0.880234 0.216077
v 0.675998 0.535048 0.404634
v -0.156539 0.055841 0.521382
v -0.675618 0.379758 0.325265
vn -0.4057 0.8552 -0.3224
vn -0.3016 -0.4458 0.8428
vn 0.2327 0.9240 -0.3035
vn 0.9798 0.1912 0.0587
vn 0.2145 -0.9723 -0.0924
vn -0.9921 0.0776 -0.0989
vt 0.733123 0.624165
vt 0.969372 0.229481
vt 0.538683 0.146938
vt 0.073104 0.090572
vt 0.549326 0.355995
vt 0.027689 0.288344
vt 0.753313 0.489171
vt 0.982827 0.680732
vt 0.267816 0.479590
vt 0.758024 0.989206
vt 0.587104 1.000000
vt 0.427006 0.161132
vt 0.501170 0.733852
vt 0.734030 0.014798
vt 0.230382 0.013882
s 1
usemtl leaf.placeholder
f 76/102/141 79/110/142 77/104/143
f 77/103/143 78/105/144 75/100/145
f 78/106/144 79/108/142 75/99/145
f 75/99/145 79/109/142 80/111/146
f 75/100/145 80/112/146 76/101/141
f 76/101/141 77/103/143 75/100/145
f 79/110/142 76/102/141 80/113/146
f 77/104/143 79/110/142 78/107/144
o nose
v 0.059375 0.388743 0.341208
v 0.050103 0.519752 0.557127
v -0.072801 0.420646 0.329605
v -0.053898 0.483102 0.534694
v -0.008061 0.523441 0.304948
v 0.099889 0.489913 0.580497
v -0.050104 0.552854 0.269053
v -0.096012 0.463455 0.561330
v -0.041345 0.581121 0.609199
v 0.044785 0.322051 0.324270
vn 0.1837 -0.8369 0.5157
vn -0.8520 0.5176 -0.0791
vn -0.3489 0.9324 0.0941
vn -0.0609 0.8409 -0.5378
vn 0.0427 0.3594 -0.9322
vn -0.5285 -0.8448 0.0838
vn 0.8679 0.4202 0.2648
vn 0.0251 -0.2481 -0.9684
vn 0.8965 0.3947 -0.2010
vn -0.2487 -0.9200 0.3031
vn -0.8866 -0.2757 0.3713
vn 0.9050 -0.4253 0.0120
vt 0.875285 0.381292
vt 0.000000 0.503487
vt 0.878129 0.502017
vt 0.968705 0.999160
vt 0.077223 0.997988
vt 0.810030 0.034865
vt 0.544216 0.502253
vt 0.541503 0.998677
vt 0.560590 0.228639
vt 0.265734 0.502483
vt 0.952052 0.999725
vt 0.239520 0.427215
vt 0.072032 1.001780
vt 0.314357 0.500000
vt 0.313182 0.036171
vt 0.546538 0.994122
vt 0.047279 0.160001
vt 0.316291 1.001372
vt 0.803575 0.503023
vt 0.000000 0.500000
s 0
usemtl ice
f 82/117/147 84/121/147 81/116/147
f 84/121/148 85/123/148 83/120/148
f 84/121/149 82/118/149 85/123/149
f 85/122/154 81/114/154 83/119/154
f 85/123/155 82/118/155 81/115/155
f 81/116/156 84/121/156 83/120/156
usemtl stroke.img
f 88/129/150 86/124/150 90/132/150
f 86/125/151 88/128/151 89/130/151
f 87/127/152 86/126/152 89/131/152
f 87/127/153 88/129/153 90/132/153
f 87/127/157 90/133/157 86/126/157
f 87/127/158 89/131/158 88/129/158
